<svg width="374" height="79" viewBox="0 0 374 79" fill="none" xmlns="http://www.w3.org/2000/svg">
<g filter="url(#filter0_d)">
<path d="M18.75 43.5229L11.2427 50.9204V70H6.73828V16.6797H11.2427V45.4272L38.562 16.6797H44.2383L21.8994 40.4102L45.9595 70H40.4663L18.75 43.5229ZM67.4194 70.7324C64.0503 70.7324 60.9985 69.9023 58.2642 68.2422C55.5542 66.582 53.4424 64.2749 51.9287 61.3208C50.415 58.3423 49.6582 55.0098 49.6582 51.3232V49.7485C49.6582 45.9399 50.3906 42.5098 51.8555 39.458C53.3447 36.4062 55.4077 34.0137 58.0444 32.2803C60.6812 30.5225 63.5376 29.6436 66.6138 29.6436C71.4233 29.6436 75.2319 31.2915 78.0396 34.5874C80.8716 37.8589 82.2876 42.3389 82.2876 48.0273V50.481H54.0161V51.3232C54.0161 55.8154 55.2979 59.563 57.8613 62.5659C60.4492 65.5444 63.6963 67.0337 67.6025 67.0337C69.9463 67.0337 72.0093 66.6064 73.7915 65.752C75.5981 64.8975 77.2339 63.5303 78.6987 61.6504L81.4453 63.7378C78.2227 68.4009 73.5474 70.7324 67.4194 70.7324ZM66.6138 33.3789C63.3179 33.3789 60.5347 34.5874 58.2642 37.0044C56.0181 39.4214 54.6509 42.6685 54.1626 46.7456H77.9297V46.2695C77.8076 42.4609 76.7212 39.3604 74.6704 36.9678C72.6196 34.5752 69.9341 33.3789 66.6138 33.3789ZM94.9951 30.376L95.1416 37.1509C96.6309 34.7095 98.4863 32.854 100.708 31.5845C102.93 30.2905 105.383 29.6436 108.069 29.6436C112.317 29.6436 115.479 30.8398 117.554 33.2324C119.629 35.625 120.679 39.2139 120.703 43.999V70H116.345V43.9624C116.321 40.4224 115.564 37.7856 114.075 36.0522C112.61 34.3188 110.254 33.4521 107.007 33.4521C104.297 33.4521 101.892 34.3066 99.7925 36.0156C97.7173 37.7002 96.1792 39.9829 95.1782 42.8638V70H90.8203V30.376H94.9951ZM134.949 66.3013H160.693V70H129.529V66.7773L153.552 34.1479H130.261V30.376H159.082V33.6353L134.949 66.3013ZM173.438 70H169.043V30.376H173.438V70ZM168.274 18.9136C168.274 18.0835 168.542 17.3877 169.08 16.8262C169.617 16.2402 170.349 15.9473 171.277 15.9473C172.205 15.9473 172.937 16.2402 173.474 16.8262C174.036 17.3877 174.316 18.0835 174.316 18.9136C174.316 19.7437 174.036 20.4395 173.474 21.001C172.937 21.5625 172.205 21.8433 171.277 21.8433C170.349 21.8433 169.617 21.5625 169.08 21.001C168.542 20.4395 168.274 19.7437 168.274 18.9136ZM200.72 70.7324C197.351 70.7324 194.299 69.9023 191.565 68.2422C188.855 66.582 186.743 64.2749 185.229 61.3208C183.716 58.3423 182.959 55.0098 182.959 51.3232V49.7485C182.959 45.9399 183.691 42.5098 185.156 39.458C186.646 36.4062 188.708 34.0137 191.345 32.2803C193.982 30.5225 196.838 29.6436 199.915 29.6436C204.724 29.6436 208.533 31.2915 211.34 34.5874C214.172 37.8589 215.588 42.3389 215.588 48.0273V50.481H187.317V51.3232C187.317 55.8154 188.599 59.563 191.162 62.5659C193.75 65.5444 196.997 67.0337 200.903 67.0337C203.247 67.0337 205.31 66.6064 207.092 65.752C208.899 64.8975 210.535 63.5303 212 61.6504L214.746 63.7378C211.523 68.4009 206.848 70.7324 200.72 70.7324ZM199.915 33.3789C196.619 33.3789 193.835 34.5874 191.565 37.0044C189.319 39.4214 187.952 42.6685 187.463 46.7456H211.23V46.2695C211.108 42.4609 210.022 39.3604 207.971 36.9678C205.92 34.5752 203.235 33.3789 199.915 33.3789ZM266.565 70H255.579V47.1484H234.155V70H223.169V16.6797H234.155V38.2861H255.579V16.6797H266.565V70ZM299.231 65.9717C296.619 69.1455 293.005 70.7324 288.391 70.7324C284.143 70.7324 280.896 69.5117 278.65 67.0703C276.428 64.6289 275.293 61.0522 275.244 56.3403V30.376H285.828V55.9741C285.828 60.1001 287.708 62.1631 291.467 62.1631C295.056 62.1631 297.522 60.918 298.865 58.4277V30.376H309.485V70H299.524L299.231 65.9717ZM353.174 50.5542C353.174 56.9019 351.819 61.8579 349.109 65.4224C346.399 68.9624 342.615 70.7324 337.756 70.7324C333.459 70.7324 330.029 69.0845 327.466 65.7886L326.99 70H317.468V13.75H328.052V33.9282C330.493 31.0718 333.704 29.6436 337.683 29.6436C342.517 29.6436 346.301 31.4258 349.036 34.9902C351.794 38.5303 353.174 43.5229 353.174 49.9683V50.5542ZM342.59 49.7852C342.59 45.7812 341.956 42.8638 340.686 41.0327C339.417 39.1772 337.524 38.2495 335.01 38.2495C331.641 38.2495 329.321 39.6289 328.052 42.3877V58.0249C329.346 60.8081 331.689 62.1997 335.083 62.1997C338.501 62.1997 340.747 60.5151 341.821 57.146C342.334 55.5347 342.59 53.0811 342.59 49.7852Z" fill="#D9D9D9"/>
</g>
<defs>
<filter id="filter0_d" x="5.73828" y="13.75" width="354.436" height="64.9824" filterUnits="userSpaceOnUse" color-interpolation-filters="sRGB">
<feFlood flood-opacity="0" result="BackgroundImageFix"/>
<feColorMatrix in="SourceAlpha" type="matrix" values="0 0 0 0 0 0 0 0 0 0 0 0 0 0 0 0 0 0 127 0" result="hardAlpha"/>
<feOffset dx="3" dy="4"/>
<feGaussianBlur stdDeviation="2"/>
<feComposite in2="hardAlpha" operator="out"/>
<feColorMatrix type="matrix" values="0 0 0 0 0 0 0 0 0 0 0 0 0 0 0 0 0 0 0.25 0"/>
<feBlend mode="normal" in2="BackgroundImageFix" result="effect1_dropShadow"/>
<feBlend mode="normal" in="SourceGraphic" in2="effect1_dropShadow" result="shape"/>
</filter>
</defs>
</svg>
