<svg width="493" height="129" viewBox="0 0 493 129" fill="none" xmlns="http://www.w3.org/2000/svg">
<g filter="url(#filter0_d)">
<path d="M27.5 63.167L16.4893 74.0166V102H9.88281V23.7969H16.4893V65.96L56.5576 23.7969H64.8828L32.1191 58.6016L67.4072 102H59.3506L27.5 63.167ZM97.4707 102.977C92.9785 102.977 88.9095 101.87 85.2637 99.6562C81.6504 97.4427 78.8346 94.3665 76.8164 90.4277C74.7982 86.4564 73.7891 82.013 73.7891 77.0977V74.998C73.7891 69.9199 74.7656 65.3464 76.7188 61.2773C78.7044 57.2083 81.4551 54.0182 84.9707 51.707C88.4863 49.3633 92.2949 48.1914 96.3965 48.1914C102.809 48.1914 107.887 50.3887 111.631 54.7832C115.407 59.1452 117.295 65.1185 117.295 72.7031V75.9746H79.5996V77.0977C79.5996 83.0872 81.3086 88.084 84.7266 92.0879C88.1771 96.0592 92.5065 98.0449 97.7148 98.0449C100.84 98.0449 103.59 97.4753 105.967 96.3359C108.376 95.1966 110.557 93.3737 112.51 90.8672L116.172 93.6504C111.875 99.8678 105.641 102.977 97.4707 102.977ZM96.3965 53.1719C92.002 53.1719 88.291 54.7832 85.2637 58.0059C82.2689 61.2285 80.446 65.5579 79.7949 70.9941H111.484V70.3594C111.322 65.2812 109.873 61.1471 107.139 57.957C104.404 54.7669 100.824 53.1719 96.3965 53.1719ZM134.238 49.168L134.434 58.2012C136.419 54.946 138.893 52.472 141.855 50.7793C144.818 49.054 148.089 48.1914 151.67 48.1914C157.334 48.1914 161.549 49.7865 164.316 52.9766C167.083 56.1667 168.483 60.9518 168.516 67.332V102H162.705V67.2832C162.673 62.5632 161.663 59.0475 159.678 56.7363C157.725 54.4251 154.583 53.2695 150.254 53.2695C146.641 53.2695 143.434 54.4089 140.635 56.6875C137.868 58.9336 135.817 61.9772 134.482 65.8184V102H128.672V49.168H134.238ZM187.51 97.0684H221.836V102H180.283V97.7031L212.314 54.1973H181.26V49.168H219.688V53.5137L187.51 97.0684ZM238.828 102H232.969V49.168H238.828V102ZM231.943 33.8848C231.943 32.778 232.301 31.8503 233.018 31.1016C233.734 30.3203 234.71 29.9297 235.947 29.9297C237.184 29.9297 238.161 30.3203 238.877 31.1016C239.626 31.8503 240 32.778 240 33.8848C240 34.9915 239.626 35.9193 238.877 36.668C238.161 37.4167 237.184 37.791 235.947 37.791C234.71 37.791 233.734 37.4167 233.018 36.668C232.301 35.9193 231.943 34.9915 231.943 33.8848ZM275.205 102.977C270.713 102.977 266.644 101.87 262.998 99.6562C259.385 97.4427 256.569 94.3665 254.551 90.4277C252.533 86.4564 251.523 82.013 251.523 77.0977V74.998C251.523 69.9199 252.5 65.3464 254.453 61.2773C256.439 57.2083 259.189 54.0182 262.705 51.707C266.221 49.3633 270.029 48.1914 274.131 48.1914C280.544 48.1914 285.622 50.3887 289.365 54.7832C293.141 59.1452 295.029 65.1185 295.029 72.7031V75.9746H257.334V77.0977C257.334 83.0872 259.043 88.084 262.461 92.0879C265.911 96.0592 270.241 98.0449 275.449 98.0449C278.574 98.0449 281.325 97.4753 283.701 96.3359C286.11 95.1966 288.291 93.3737 290.244 90.8672L293.906 93.6504C289.609 99.8678 283.376 102.977 275.205 102.977ZM274.131 53.1719C269.736 53.1719 266.025 54.7832 262.998 58.0059C260.003 61.2285 258.18 65.5579 257.529 70.9941H289.219V70.3594C289.056 65.2812 287.607 61.1471 284.873 57.957C282.139 54.7669 278.558 53.1719 274.131 53.1719ZM369.419 102H353.306V68.4844H321.885V102H305.771V23.7969H321.885V55.4863H353.306V23.7969H369.419V102ZM413.623 96.6289C410.14 100.861 405.322 102.977 399.17 102.977C393.506 102.977 389.176 101.349 386.182 98.0938C383.219 94.8385 381.706 90.0697 381.641 83.7871V49.168H395.752V83.2988C395.752 88.8001 398.258 91.5508 403.271 91.5508C408.057 91.5508 411.344 89.8906 413.135 86.5703V49.168H427.295V102H414.014L413.623 96.6289ZM485.547 76.0723C485.547 84.5358 483.74 91.1439 480.127 95.8965C476.514 100.617 471.468 102.977 464.99 102.977C459.261 102.977 454.688 100.779 451.27 96.3848L450.635 102H437.939V27H452.051V53.9043C455.306 50.0957 459.587 48.1914 464.893 48.1914C471.338 48.1914 476.383 50.5677 480.029 55.3203C483.708 60.0404 485.547 66.6973 485.547 75.291V76.0723ZM471.436 75.0469C471.436 69.7083 470.589 65.8184 468.896 63.377C467.204 60.903 464.681 59.666 461.328 59.666C456.836 59.666 453.743 61.5052 452.051 65.1836V86.0332C453.776 89.7441 456.901 91.5996 461.426 91.5996C465.983 91.5996 468.978 89.3535 470.41 84.8613C471.094 82.7129 471.436 79.4414 471.436 75.0469Z" fill="#E280F9"/>
</g>
<path d="M267.781 43C267.573 42.5833 267.404 41.8411 267.273 40.7734C265.594 42.5182 263.589 43.3906 261.258 43.3906C259.174 43.3906 257.462 42.8047 256.121 41.6328C254.793 40.4479 254.129 38.9505 254.129 37.1406C254.129 34.9401 254.962 33.2344 256.629 32.0234C258.309 30.7995 260.665 30.1875 263.699 30.1875H267.215V28.5273C267.215 27.2643 266.837 26.2617 266.082 25.5195C265.327 24.7643 264.214 24.3867 262.742 24.3867C261.453 24.3867 260.372 24.7122 259.5 25.3633C258.628 26.0143 258.191 26.8021 258.191 27.7266H254.559C254.559 26.6719 254.93 25.6562 255.672 24.6797C256.427 23.6901 257.443 22.9089 258.719 22.3359C260.008 21.763 261.421 21.4766 262.957 21.4766C265.392 21.4766 267.299 22.0885 268.68 23.3125C270.06 24.5234 270.776 26.1966 270.828 28.332V38.0586C270.828 39.9987 271.076 41.5417 271.57 42.6875V43H267.781ZM261.785 40.2461C262.918 40.2461 263.992 39.9531 265.008 39.3672C266.023 38.7812 266.759 38.0195 267.215 37.082V32.7461H264.383C259.956 32.7461 257.742 34.0417 257.742 36.6328C257.742 37.7656 258.12 38.651 258.875 39.2891C259.63 39.9271 260.6 40.2461 261.785 40.2461ZM275.535 32.2383C275.535 30.168 275.939 28.306 276.746 26.6523C277.566 24.9987 278.699 23.7227 280.145 22.8242C281.603 21.9258 283.263 21.4766 285.125 21.4766C288.003 21.4766 290.327 22.4727 292.098 24.4648C293.882 26.457 294.773 29.1068 294.773 32.4141V32.668C294.773 34.7253 294.376 36.5742 293.582 38.2148C292.801 39.8424 291.674 41.112 290.203 42.0234C288.745 42.9349 287.065 43.3906 285.164 43.3906C282.299 43.3906 279.975 42.3945 278.191 40.4023C276.421 38.4102 275.535 35.7734 275.535 32.4922V32.2383ZM279.168 32.668C279.168 35.0117 279.708 36.8932 280.789 38.3125C281.883 39.7318 283.341 40.4414 285.164 40.4414C287 40.4414 288.458 39.7253 289.539 38.293C290.62 36.8477 291.16 34.8294 291.16 32.2383C291.16 29.9206 290.607 28.0456 289.5 26.6133C288.406 25.168 286.948 24.4453 285.125 24.4453C283.341 24.4453 281.902 25.1549 280.809 26.5742C279.715 27.9935 279.168 30.0247 279.168 32.668Z" fill="#38FFD0"/>
<path d="M67.9707 44V18.4062H76.3379C79.1152 18.4062 81.2012 18.9805 82.5957 20.1289C84.002 21.2773 84.7051 22.9766 84.7051 25.2266C84.7051 26.4219 84.3652 27.4824 83.6855 28.4082C83.0059 29.3223 82.0801 30.0312 80.9082 30.5352C82.291 30.9219 83.3809 31.6602 84.1777 32.75C84.9863 33.8281 85.3906 35.1172 85.3906 36.6172C85.3906 38.9141 84.6465 40.7188 83.1582 42.0312C81.6699 43.3438 79.5664 44 76.8477 44H67.9707ZM71.3457 32.0293V41.2402H76.918C78.4883 41.2402 79.7246 40.8359 80.627 40.0273C81.541 39.207 81.998 38.082 81.998 36.6523C81.998 33.5703 80.3223 32.0293 76.9707 32.0293H71.3457ZM71.3457 29.3223H76.4434C77.9199 29.3223 79.0977 28.9531 79.9766 28.2148C80.8672 27.4766 81.3125 26.4746 81.3125 25.209C81.3125 23.8027 80.9023 22.7832 80.082 22.1504C79.2617 21.5059 78.0137 21.1836 76.3379 21.1836H71.3457V29.3223ZM97.7832 44.3516C95.2051 44.3516 93.1074 43.5078 91.4902 41.8203C89.873 40.1211 89.0645 37.8535 89.0645 35.0176V34.4199C89.0645 32.5332 89.4219 30.8516 90.1367 29.375C90.8633 27.8867 91.8711 26.7266 93.1602 25.8945C94.4609 25.0508 95.8672 24.6289 97.3789 24.6289C99.8516 24.6289 101.773 25.4434 103.145 27.0723C104.516 28.7012 105.201 31.0332 105.201 34.0684V35.4219H92.3164C92.3633 37.2969 92.9082 38.8145 93.9512 39.9746C95.0059 41.123 96.3418 41.6973 97.959 41.6973C99.1074 41.6973 100.08 41.4629 100.877 40.9941C101.674 40.5254 102.371 39.9043 102.969 39.1309L104.955 40.6777C103.361 43.127 100.971 44.3516 97.7832 44.3516ZM97.3789 27.3008C96.0664 27.3008 94.9648 27.7812 94.0742 28.7422C93.1836 29.6914 92.6328 31.0273 92.4219 32.75H101.949V32.5039C101.855 30.8516 101.41 29.5742 100.613 28.6719C99.8164 27.7578 98.7383 27.3008 97.3789 27.3008ZM112.039 24.9805L112.127 27.0898C113.521 25.4492 115.402 24.6289 117.77 24.6289C120.43 24.6289 122.24 25.6484 123.201 27.6875C123.834 26.7734 124.654 26.0352 125.662 25.4727C126.682 24.9102 127.883 24.6289 129.266 24.6289C133.438 24.6289 135.559 26.8379 135.629 31.2559V44H132.377V31.4492C132.377 30.0898 132.066 29.0762 131.445 28.4082C130.824 27.7285 129.781 27.3887 128.316 27.3887C127.109 27.3887 126.107 27.752 125.311 28.4785C124.514 29.1934 124.051 30.1602 123.922 31.3789V44H120.652V31.5371C120.652 28.7715 119.299 27.3887 116.592 27.3887C114.459 27.3887 113 28.2969 112.215 30.1133V44H108.963V24.9805H112.039ZM155.756 39.5879L160.467 24.9805H163.789L156.969 44H154.49L147.6 24.9805H150.922L155.756 39.5879ZM170.451 44H167.199V24.9805H170.451V44ZM166.936 19.9355C166.936 19.4082 167.094 18.9629 167.41 18.5996C167.738 18.2363 168.219 18.0547 168.852 18.0547C169.484 18.0547 169.965 18.2363 170.293 18.5996C170.621 18.9629 170.785 19.4082 170.785 19.9355C170.785 20.4629 170.621 20.9023 170.293 21.2539C169.965 21.6055 169.484 21.7812 168.852 21.7812C168.219 21.7812 167.738 21.6055 167.41 21.2539C167.094 20.9023 166.936 20.4629 166.936 19.9355ZM178.748 24.9805L178.854 27.3711C180.307 25.543 182.205 24.6289 184.549 24.6289C188.568 24.6289 190.596 26.8965 190.631 31.4316V44H187.379V31.4141C187.367 30.043 187.051 29.0293 186.43 28.373C185.82 27.7168 184.865 27.3887 183.564 27.3887C182.51 27.3887 181.584 27.6699 180.787 28.2324C179.99 28.7949 179.369 29.5332 178.924 30.4473V44H175.672V24.9805H178.748ZM194.744 34.332C194.744 31.4141 195.436 29.0703 196.818 27.3008C198.201 25.5195 200.012 24.6289 202.25 24.6289C204.477 24.6289 206.24 25.3906 207.541 26.9141V17H210.793V44H207.805L207.646 41.9609C206.346 43.5547 204.535 44.3516 202.215 44.3516C200.012 44.3516 198.213 43.4492 196.818 41.6445C195.436 39.8398 194.744 37.4844 194.744 34.5781V34.332ZM197.996 34.7012C197.996 36.8574 198.441 38.5449 199.332 39.7637C200.223 40.9824 201.453 41.5918 203.023 41.5918C205.086 41.5918 206.592 40.666 207.541 38.8145V30.0781C206.568 28.2852 205.074 27.3887 203.059 27.3887C201.465 27.3887 200.223 28.0039 199.332 29.2344C198.441 30.4648 197.996 32.2871 197.996 34.7012ZM214.994 34.3145C214.994 32.4512 215.357 30.7754 216.084 29.2871C216.822 27.7988 217.842 26.6504 219.143 25.8418C220.455 25.0332 221.949 24.6289 223.625 24.6289C226.215 24.6289 228.307 25.5254 229.9 27.3184C231.506 29.1113 232.309 31.4961 232.309 34.4727V34.7012C232.309 36.5527 231.951 38.2168 231.236 39.6934C230.533 41.1582 229.52 42.3008 228.195 43.1211C226.883 43.9414 225.371 44.3516 223.66 44.3516C221.082 44.3516 218.99 43.4551 217.385 41.6621C215.791 39.8691 214.994 37.4961 214.994 34.543V34.3145ZM218.264 34.7012C218.264 36.8105 218.75 38.5039 219.723 39.7812C220.707 41.0586 222.02 41.6973 223.66 41.6973C225.312 41.6973 226.625 41.0527 227.598 39.7637C228.57 38.4629 229.057 36.6465 229.057 34.3145C229.057 32.2285 228.559 30.541 227.562 29.252C226.578 27.9512 225.266 27.3008 223.625 27.3008C222.02 27.3008 220.725 27.9395 219.74 29.2168C218.756 30.4941 218.264 32.3223 218.264 34.7012Z" fill="#38FFD0"/>
<defs>
<filter id="filter0_d" x="8.88281" y="23.7969" width="483.664" height="87.1797" filterUnits="userSpaceOnUse" color-interpolation-filters="sRGB">
<feFlood flood-opacity="0" result="BackgroundImageFix"/>
<feColorMatrix in="SourceAlpha" type="matrix" values="0 0 0 0 0 0 0 0 0 0 0 0 0 0 0 0 0 0 127 0" result="hardAlpha"/>
<feOffset dx="3" dy="4"/>
<feGaussianBlur stdDeviation="2"/>
<feComposite in2="hardAlpha" operator="out"/>
<feColorMatrix type="matrix" values="0 0 0 0 0 0 0 0 0 0 0 0 0 0 0 0 0 0 0.25 0"/>
<feBlend mode="normal" in2="BackgroundImageFix" result="effect1_dropShadow"/>
<feBlend mode="normal" in="SourceGraphic" in2="effect1_dropShadow" result="shape"/>
</filter>
</defs>
</svg>
