<svg width="954" height="527" viewBox="0 0 954 527" fill="none" xmlns="http://www.w3.org/2000/svg">
<ellipse cx="477" cy="263.5" rx="477" ry="263.5" fill="#F1E1E1"/>
<g filter="url(#filter0_d)">
<path d="M264.5 268.167L253.489 279.017V307H246.883V228.797H253.489V270.96L293.558 228.797H301.883L269.119 263.602L304.407 307H296.351L264.5 268.167ZM334.471 307.977C329.979 307.977 325.91 306.87 322.264 304.656C318.65 302.443 315.835 299.367 313.816 295.428C311.798 291.456 310.789 287.013 310.789 282.098V279.998C310.789 274.92 311.766 270.346 313.719 266.277C315.704 262.208 318.455 259.018 321.971 256.707C325.486 254.363 329.295 253.191 333.396 253.191C339.809 253.191 344.887 255.389 348.631 259.783C352.407 264.145 354.295 270.118 354.295 277.703V280.975H316.6V282.098C316.6 288.087 318.309 293.084 321.727 297.088C325.177 301.059 329.507 303.045 334.715 303.045C337.84 303.045 340.59 302.475 342.967 301.336C345.376 300.197 347.557 298.374 349.51 295.867L353.172 298.65C348.875 304.868 342.641 307.977 334.471 307.977ZM333.396 258.172C329.002 258.172 325.291 259.783 322.264 263.006C319.269 266.229 317.446 270.558 316.795 275.994H348.484V275.359C348.322 270.281 346.873 266.147 344.139 262.957C341.404 259.767 337.824 258.172 333.396 258.172ZM371.238 254.168L371.434 263.201C373.419 259.946 375.893 257.472 378.855 255.779C381.818 254.054 385.089 253.191 388.67 253.191C394.334 253.191 398.549 254.786 401.316 257.977C404.083 261.167 405.483 265.952 405.516 272.332V307H399.705V272.283C399.673 267.563 398.663 264.048 396.678 261.736C394.725 259.425 391.583 258.27 387.254 258.27C383.641 258.27 380.434 259.409 377.635 261.688C374.868 263.934 372.817 266.977 371.482 270.818V307H365.672V254.168H371.238ZM424.51 302.068H458.836V307H417.283V302.703L449.314 259.197H418.26V254.168H456.688V258.514L424.51 302.068ZM475.828 307H469.969V254.168H475.828V307ZM468.943 238.885C468.943 237.778 469.301 236.85 470.018 236.102C470.734 235.32 471.71 234.93 472.947 234.93C474.184 234.93 475.161 235.32 475.877 236.102C476.626 236.85 477 237.778 477 238.885C477 239.992 476.626 240.919 475.877 241.668C475.161 242.417 474.184 242.791 472.947 242.791C471.71 242.791 470.734 242.417 470.018 241.668C469.301 240.919 468.943 239.992 468.943 238.885ZM512.205 307.977C507.713 307.977 503.644 306.87 499.998 304.656C496.385 302.443 493.569 299.367 491.551 295.428C489.533 291.456 488.523 287.013 488.523 282.098V279.998C488.523 274.92 489.5 270.346 491.453 266.277C493.439 262.208 496.189 259.018 499.705 256.707C503.221 254.363 507.029 253.191 511.131 253.191C517.544 253.191 522.622 255.389 526.365 259.783C530.141 264.145 532.029 270.118 532.029 277.703V280.975H494.334V282.098C494.334 288.087 496.043 293.084 499.461 297.088C502.911 301.059 507.241 303.045 512.449 303.045C515.574 303.045 518.325 302.475 520.701 301.336C523.11 300.197 525.291 298.374 527.244 295.867L530.906 298.65C526.609 304.868 520.376 307.977 512.205 307.977ZM511.131 258.172C506.736 258.172 503.025 259.783 499.998 263.006C497.003 266.229 495.18 270.558 494.529 275.994H526.219V275.359C526.056 270.281 524.607 266.147 521.873 262.957C519.139 259.767 515.558 258.172 511.131 258.172ZM606.419 307H590.306V273.484H558.885V307H542.771V228.797H558.885V260.486H590.306V228.797H606.419V307ZM650.623 301.629C647.14 305.861 642.322 307.977 636.17 307.977C630.506 307.977 626.176 306.349 623.182 303.094C620.219 299.839 618.706 295.07 618.641 288.787V254.168H632.752V288.299C632.752 293.8 635.258 296.551 640.271 296.551C645.057 296.551 648.344 294.891 650.135 291.57V254.168H664.295V307H651.014L650.623 301.629ZM722.547 281.072C722.547 289.536 720.74 296.144 717.127 300.896C713.514 305.617 708.468 307.977 701.99 307.977C696.261 307.977 691.688 305.779 688.27 301.385L687.635 307H674.939V232H689.051V258.904C692.306 255.096 696.587 253.191 701.893 253.191C708.338 253.191 713.383 255.568 717.029 260.32C720.708 265.04 722.547 271.697 722.547 280.291V281.072ZM708.436 280.047C708.436 274.708 707.589 270.818 705.896 268.377C704.204 265.903 701.681 264.666 698.328 264.666C693.836 264.666 690.743 266.505 689.051 270.184V291.033C690.776 294.744 693.901 296.6 698.426 296.6C702.983 296.6 705.978 294.354 707.41 289.861C708.094 287.713 708.436 284.441 708.436 280.047Z" fill="black"/>
</g>
<path d="M503.781 248C503.573 247.583 503.404 246.841 503.273 245.773C501.594 247.518 499.589 248.391 497.258 248.391C495.174 248.391 493.462 247.805 492.121 246.633C490.793 245.448 490.129 243.951 490.129 242.141C490.129 239.94 490.962 238.234 492.629 237.023C494.309 235.799 496.665 235.188 499.699 235.188H503.215V233.527C503.215 232.264 502.837 231.262 502.082 230.52C501.327 229.764 500.214 229.387 498.742 229.387C497.453 229.387 496.372 229.712 495.5 230.363C494.628 231.014 494.191 231.802 494.191 232.727H490.559C490.559 231.672 490.93 230.656 491.672 229.68C492.427 228.69 493.443 227.909 494.719 227.336C496.008 226.763 497.421 226.477 498.957 226.477C501.392 226.477 503.299 227.089 504.68 228.312C506.06 229.523 506.776 231.197 506.828 233.332V243.059C506.828 244.999 507.076 246.542 507.57 247.688V248H503.781ZM497.785 245.246C498.918 245.246 499.992 244.953 501.008 244.367C502.023 243.781 502.759 243.02 503.215 242.082V237.746H500.383C495.956 237.746 493.742 239.042 493.742 241.633C493.742 242.766 494.12 243.651 494.875 244.289C495.63 244.927 496.6 245.246 497.785 245.246ZM511.535 237.238C511.535 235.168 511.939 233.306 512.746 231.652C513.566 229.999 514.699 228.723 516.145 227.824C517.603 226.926 519.263 226.477 521.125 226.477C524.003 226.477 526.327 227.473 528.098 229.465C529.882 231.457 530.773 234.107 530.773 237.414V237.668C530.773 239.725 530.376 241.574 529.582 243.215C528.801 244.842 527.674 246.112 526.203 247.023C524.745 247.935 523.065 248.391 521.164 248.391C518.299 248.391 515.975 247.395 514.191 245.402C512.421 243.41 511.535 240.773 511.535 237.492V237.238ZM515.168 237.668C515.168 240.012 515.708 241.893 516.789 243.312C517.883 244.732 519.341 245.441 521.164 245.441C523 245.441 524.458 244.725 525.539 243.293C526.62 241.848 527.16 239.829 527.16 237.238C527.16 234.921 526.607 233.046 525.5 231.613C524.406 230.168 522.948 229.445 521.125 229.445C519.341 229.445 517.902 230.155 516.809 231.574C515.715 232.993 515.168 235.025 515.168 237.668Z" fill="#B04646"/>
<path d="M304.971 249V223.406H313.338C316.115 223.406 318.201 223.98 319.596 225.129C321.002 226.277 321.705 227.977 321.705 230.227C321.705 231.422 321.365 232.482 320.686 233.408C320.006 234.322 319.08 235.031 317.908 235.535C319.291 235.922 320.381 236.66 321.178 237.75C321.986 238.828 322.391 240.117 322.391 241.617C322.391 243.914 321.646 245.719 320.158 247.031C318.67 248.344 316.566 249 313.848 249H304.971ZM308.346 237.029V246.24H313.918C315.488 246.24 316.725 245.836 317.627 245.027C318.541 244.207 318.998 243.082 318.998 241.652C318.998 238.57 317.322 237.029 313.971 237.029H308.346ZM308.346 234.322H313.443C314.92 234.322 316.098 233.953 316.977 233.215C317.867 232.477 318.312 231.475 318.312 230.209C318.312 228.803 317.902 227.783 317.082 227.15C316.262 226.506 315.014 226.184 313.338 226.184H308.346V234.322ZM334.783 249.352C332.205 249.352 330.107 248.508 328.49 246.82C326.873 245.121 326.064 242.854 326.064 240.018V239.42C326.064 237.533 326.422 235.852 327.137 234.375C327.863 232.887 328.871 231.727 330.16 230.895C331.461 230.051 332.867 229.629 334.379 229.629C336.852 229.629 338.773 230.443 340.145 232.072C341.516 233.701 342.201 236.033 342.201 239.068V240.422H329.316C329.363 242.297 329.908 243.814 330.951 244.975C332.006 246.123 333.342 246.697 334.959 246.697C336.107 246.697 337.08 246.463 337.877 245.994C338.674 245.525 339.371 244.904 339.969 244.131L341.955 245.678C340.361 248.127 337.971 249.352 334.783 249.352ZM334.379 232.301C333.066 232.301 331.965 232.781 331.074 233.742C330.184 234.691 329.633 236.027 329.422 237.75H338.949V237.504C338.855 235.852 338.41 234.574 337.613 233.672C336.816 232.758 335.738 232.301 334.379 232.301ZM349.039 229.98L349.127 232.09C350.521 230.449 352.402 229.629 354.77 229.629C357.43 229.629 359.24 230.648 360.201 232.688C360.834 231.773 361.654 231.035 362.662 230.473C363.682 229.91 364.883 229.629 366.266 229.629C370.438 229.629 372.559 231.838 372.629 236.256V249H369.377V236.449C369.377 235.09 369.066 234.076 368.445 233.408C367.824 232.729 366.781 232.389 365.316 232.389C364.109 232.389 363.107 232.752 362.311 233.479C361.514 234.193 361.051 235.16 360.922 236.379V249H357.652V236.537C357.652 233.771 356.299 232.389 353.592 232.389C351.459 232.389 350 233.297 349.215 235.113V249H345.963V229.98H349.039ZM392.756 244.588L397.467 229.98H400.789L393.969 249H391.49L384.6 229.98H387.922L392.756 244.588ZM407.451 249H404.199V229.98H407.451V249ZM403.936 224.936C403.936 224.408 404.094 223.963 404.41 223.6C404.738 223.236 405.219 223.055 405.852 223.055C406.484 223.055 406.965 223.236 407.293 223.6C407.621 223.963 407.785 224.408 407.785 224.936C407.785 225.463 407.621 225.902 407.293 226.254C406.965 226.605 406.484 226.781 405.852 226.781C405.219 226.781 404.738 226.605 404.41 226.254C404.094 225.902 403.936 225.463 403.936 224.936ZM415.748 229.98L415.854 232.371C417.307 230.543 419.205 229.629 421.549 229.629C425.568 229.629 427.596 231.896 427.631 236.432V249H424.379V236.414C424.367 235.043 424.051 234.029 423.43 233.373C422.82 232.717 421.865 232.389 420.564 232.389C419.51 232.389 418.584 232.67 417.787 233.232C416.99 233.795 416.369 234.533 415.924 235.447V249H412.672V229.98H415.748ZM431.744 239.332C431.744 236.414 432.436 234.07 433.818 232.301C435.201 230.52 437.012 229.629 439.25 229.629C441.477 229.629 443.24 230.391 444.541 231.914V222H447.793V249H444.805L444.646 246.961C443.346 248.555 441.535 249.352 439.215 249.352C437.012 249.352 435.213 248.449 433.818 246.645C432.436 244.84 431.744 242.484 431.744 239.578V239.332ZM434.996 239.701C434.996 241.857 435.441 243.545 436.332 244.764C437.223 245.982 438.453 246.592 440.023 246.592C442.086 246.592 443.592 245.666 444.541 243.814V235.078C443.568 233.285 442.074 232.389 440.059 232.389C438.465 232.389 437.223 233.004 436.332 234.234C435.441 235.465 434.996 237.287 434.996 239.701ZM451.994 239.314C451.994 237.451 452.357 235.775 453.084 234.287C453.822 232.799 454.842 231.65 456.143 230.842C457.455 230.033 458.949 229.629 460.625 229.629C463.215 229.629 465.307 230.525 466.9 232.318C468.506 234.111 469.309 236.496 469.309 239.473V239.701C469.309 241.553 468.951 243.217 468.236 244.693C467.533 246.158 466.52 247.301 465.195 248.121C463.883 248.941 462.371 249.352 460.66 249.352C458.082 249.352 455.99 248.455 454.385 246.662C452.791 244.869 451.994 242.496 451.994 239.543V239.314ZM455.264 239.701C455.264 241.811 455.75 243.504 456.723 244.781C457.707 246.059 459.02 246.697 460.66 246.697C462.312 246.697 463.625 246.053 464.598 244.764C465.57 243.463 466.057 241.646 466.057 239.314C466.057 237.229 465.559 235.541 464.562 234.252C463.578 232.951 462.266 232.301 460.625 232.301C459.02 232.301 457.725 232.939 456.74 234.217C455.756 235.494 455.264 237.322 455.264 239.701Z" fill="#AD3434"/>
<defs>
<filter id="filter0_d" x="245.883" y="228.797" width="483.664" height="87.1797" filterUnits="userSpaceOnUse" color-interpolation-filters="sRGB">
<feFlood flood-opacity="0" result="BackgroundImageFix"/>
<feColorMatrix in="SourceAlpha" type="matrix" values="0 0 0 0 0 0 0 0 0 0 0 0 0 0 0 0 0 0 127 0" result="hardAlpha"/>
<feOffset dx="3" dy="4"/>
<feGaussianBlur stdDeviation="2"/>
<feComposite in2="hardAlpha" operator="out"/>
<feColorMatrix type="matrix" values="0 0 0 0 0 0 0 0 0 0 0 0 0 0 0 0 0 0 0.25 0"/>
<feBlend mode="normal" in2="BackgroundImageFix" result="effect1_dropShadow"/>
<feBlend mode="normal" in="SourceGraphic" in2="effect1_dropShadow" result="shape"/>
</filter>
</defs>
</svg>
